P1
# Created by GIMP version 2.10.30 PNM plug-in
16 16
0111111101110100000110000010110010110111011110110010000000011011100000
0000001101100000000010000011000000000111100010000000000111111000000010
0110100001000011010011100100111100100110111010001001010110010100111110
1101100101111101100111000101110101111010101011