P3
# Created by GIMP version 2.10.30 PNM plug-in
16 16
255
0
241
0
211
0
0
0
0
37
126
0
0
159
0
161
226
0
0
0
0
228
232
0
0
0
255
255
206
0
222
135
0
0
106
0
0
0
0
0
131
62
0
0
0
0
0
199
174
0
122
0
0
85
146
0
0
0
112
0
207
0
3
249
0
226
0
191
173
0
0
176
0
167
144
0
0
192
138
208
0
182
176
169
244
142
0
0
0
0
0
0
76
0
0
95
136
0
0
255
71
247
0
35
0
230
0
0
86
0
0
0
65
0
0
188
0
0
0
0
29
0
0
0
0
0
0
170
0
159
166
0
228
0
60
186
0
204
0
0
0
0
0
0
0
0
88
0
0
190
0
0
0
222
0
255
255
0
255
255
0
255
255
0
255
255
0
255
255
0
255
255
0
255
255
0
198
181
156
0
197
171
0
0
0
0
0
84
0
20
25
0
0
230
0
127
47
106
0
0
255
0
0
255
255
0
255
255
0
255
255
0
255
255
0
255
255
0
255
255
0
255
255
0
115
0
0
136
110
0
0
152
62
0
119
109
168
0
165
57
117
0
0
255
0
103
0
0
0
0
0
255
255
0
255
255
0
255
255
0
255
255
0
255
255
0
255
255
0
255
255
128
61
128
0
172
127
0
164
255
87
194
0
0
0
0
74
197
0
0
72
209
209
0
0
0
44
0
0
255
255
0
255
255
0
255
255
0
255
255
0
255
255
0
255
255
0
255
255
191
158
0
191
0
195
255
0
0
0
0
138
73
103
239
214
151
0
0
0
0
0
167
68
144
0
128
0
255
255
0
255
255
0
255
255
0
255
255
0
255
255
0
255
255
0
255
255
0
0
0
0
165
0
90
255
0
109
0
120
199
0
121
195
135
148
255
84
0
183
0
152
211
0
130
0
255
255
0
255
255
0
255
255
0
255
255
0
255
255
0
255
255
0
255
255
172
0
0
0
177
0
0
0
0
0
0
171
41
0
0
0
76
0
0
71
127
0
133
164
126
111
0
0
0
0
0
191
0
66
0
0
255
211
0
0
133
0
120
220
146
0
189
0
0
0
129
255
0
64
212
118
0
248
0
0
0
141
116
0
237
0
199
0
171
194
0
0
201
156
97
0
84
100
0
255
208
0
0
139
0
0
0
78
103
0
145
0
240
114
0
0
204
0
233
0
0
0
0
0
0
163
189
100
0
0
0
0
119
215
0
213
0
0
105
234
170
135
197
31
173
0
0
0
93
150
91
136
60
115
214
0
203
176
0
87
229
0
166
149
0
85
143
0
91
111
73
0
95
0
137
87
0
181
248
223
0
81
163
134
0
107
0
110
19
0
0
0
0
164
181
68
0
0
102
185
0
94
0
132
0
121
151
151
0
190
0
0
109
117
0
82
135
106
124
0
0
0
0
0
182
0
0
148
0
123
204
0
0
59
128
0
225
0
170
0
0
157
0
186
140
82
0
215
176
0
217
0
242
135
189
211
0
147
0
0
128
172
187
0
77
197
179
0
0
221
54
0
245
138
0
255
0
237
0
255
237
0
77
245
105
0
196
0
255
139
0
95
0
93
0
134
89
0
181
214
0
0
0
183
0
0
174
0
213
222
0
144
0
115
0
0
0
82
0
0
192
0
214
158
46
0
181
218
201
180
56
67
0
214
0
0
0
0
243
0
255
0
0
178
0
63
187
0
170
194
244
0
100
0
80
0
245
71
15
0
55
0
0
0
67
0
112
109
0
0
241
216
0
0
